<?xml version="1.0" encoding="UTF-8" standalone="no"?>
<!DOCTYPE svg PUBLIC "-//W3C//DTD SVG 1.1//EN"
 "http://www.w3.org/Graphics/SVG/1.1/DTD/svg11.dtd">
<!-- Generated by graphviz version 14.1.2 (20260124.0452)
 -->
<!-- Title: broadcast_protocol Pages: 1 -->
<svg width="1005pt" height="362pt"
 viewBox="0.00 0.00 1005.00 362.00" xmlns="http://www.w3.org/2000/svg" xmlns:xlink="http://www.w3.org/1999/xlink">
<g id="graph0" class="graph" transform="scale(1 1) rotate(0) translate(4 358)">
<title>broadcast_protocol</title>
<polygon fill="white" stroke="none" points="-4,4 -4,-358 1001.1,-358 1001.1,4 -4,4"/>
<g id="clust2" class="cluster">
<title>cluster_parties</title>
</g>
<g id="clust3" class="cluster">
<title>cluster_phase1</title>
<path fill="white" stroke="#333333" d="M161.35,-176C161.35,-176 500.6,-176 500.6,-176 506.6,-176 512.6,-182 512.6,-188 512.6,-188 512.6,-245 512.6,-245 512.6,-251 506.6,-257 500.6,-257 500.6,-257 161.35,-257 161.35,-257 155.35,-257 149.35,-251 149.35,-245 149.35,-245 149.35,-188 149.35,-188 149.35,-182 155.35,-176 161.35,-176"/>
<text xml:space="preserve" text-anchor="middle" x="330.97" y="-241.6" font-family="Helvetica,sans-Serif" font-weight="bold" font-size="12.00">Phase 1: Gradecast</text>
</g>
<g id="clust4" class="cluster">
<title>cluster_phase2</title>
<path fill="white" stroke="#333333" d="M580.6,-205C580.6,-205 813.35,-205 813.35,-205 819.35,-205 825.35,-211 825.35,-217 825.35,-217 825.35,-278 825.35,-278 825.35,-284 819.35,-290 813.35,-290 813.35,-290 580.6,-290 580.6,-290 574.6,-290 568.6,-284 568.6,-278 568.6,-278 568.6,-217 568.6,-217 568.6,-211 574.6,-205 580.6,-205"/>
<text xml:space="preserve" text-anchor="middle" x="696.97" y="-274.6" font-family="Helvetica,sans-Serif" font-weight="bold" font-size="12.00">Phase 2: Byzantine Agreement</text>
</g>
<g id="clust5" class="cluster">
<title>cluster_phase3</title>
<path fill="white" stroke="#333333" d="M891.85,-271C891.85,-271 977.1,-271 977.1,-271 983.1,-271 989.1,-277 989.1,-283 989.1,-283 989.1,-334 989.1,-334 989.1,-340 983.1,-346 977.1,-346 977.1,-346 891.85,-346 891.85,-346 885.85,-346 879.85,-340 879.85,-334 879.85,-334 879.85,-283 879.85,-283 879.85,-277 885.85,-271 891.85,-271"/>
<text xml:space="preserve" text-anchor="middle" x="934.47" y="-330.6" font-family="Helvetica,sans-Serif" font-weight="bold" font-size="12.00">Phase 3: Output</text>
</g>
<g id="clust7" class="cluster">
<title>cluster_comm</title>
</g>
<!-- P1 -->
<g id="node1" class="node">
<title>P1</title>
<ellipse fill="#e8e8e8" stroke="black" cx="48.8" cy="-232" rx="28.8" ry="28.8"/>
<ellipse fill="none" stroke="black" cx="48.8" cy="-232" rx="32.8" ry="32.8"/>
<text xml:space="preserve" text-anchor="middle" x="48.8" y="-233.55" font-family="Helvetica,sans-Serif" font-size="11.00">P₁</text>
<text xml:space="preserve" text-anchor="middle" x="48.8" y="-221.55" font-family="Helvetica,sans-Serif" font-size="11.00">(Dealer)</text>
</g>
<!-- GC1 -->
<g id="node5" class="node">
<title>GC1</title>
<path fill="#dae8fc" stroke="black" d="M199.35,-228C199.35,-228 169.35,-228 169.35,-228 163.35,-228 157.35,-222 157.35,-216 157.35,-216 157.35,-196 157.35,-196 157.35,-190 163.35,-184 169.35,-184 169.35,-184 199.35,-184 199.35,-184 205.35,-184 211.35,-190 211.35,-196 211.35,-196 211.35,-216 211.35,-216 211.35,-222 205.35,-228 199.35,-228"/>
<text xml:space="preserve" text-anchor="middle" x="184.35" y="-213.55" font-family="Helvetica,sans-Serif" font-size="11.00">P₁</text>
<text xml:space="preserve" text-anchor="middle" x="184.35" y="-201.55" font-family="Helvetica,sans-Serif" font-size="11.00">sends</text>
<text xml:space="preserve" text-anchor="middle" x="184.35" y="-189.55" font-family="Helvetica,sans-Serif" font-size="11.00">S(x,y)</text>
</g>
<!-- P1&#45;&gt;GC1 -->
<g id="edge6" class="edge">
<title>P1&#45;&gt;GC1</title>
<path fill="none" stroke="black" stroke-width="2" d="M81.45,-225.84C100.75,-222.08 125.53,-217.26 145.82,-213.31"/>
<polygon fill="black" stroke="black" stroke-width="2" points="144.75,-217.08 153.9,-211.73 143.42,-210.21 144.75,-217.08"/>
<text xml:space="preserve" text-anchor="middle" x="119.47" y="-227.04" font-family="Helvetica,sans-Serif" font-size="9.00">M ∈ {0,1}ᴸ</text>
</g>
<!-- P2 -->
<g id="node2" class="node">
<title>P2</title>
<ellipse fill="none" stroke="black" cx="48.8" cy="-160" rx="21.6" ry="21.6"/>
<text xml:space="preserve" text-anchor="middle" x="48.8" y="-155.55" font-family="Helvetica,sans-Serif" font-size="11.00">P₂</text>
</g>
<!-- GC2 -->
<g id="node6" class="node">
<title>GC2</title>
<path fill="#dae8fc" stroke="black" d="M300.35,-228C300.35,-228 260.35,-228 260.35,-228 254.35,-228 248.35,-222 248.35,-216 248.35,-216 248.35,-196 248.35,-196 248.35,-190 254.35,-184 260.35,-184 260.35,-184 300.35,-184 300.35,-184 306.35,-184 312.35,-190 312.35,-196 312.35,-196 312.35,-216 312.35,-216 312.35,-222 306.35,-228 300.35,-228"/>
<text xml:space="preserve" text-anchor="middle" x="280.35" y="-213.55" font-family="Helvetica,sans-Serif" font-size="11.00">Exchange</text>
<text xml:space="preserve" text-anchor="middle" x="280.35" y="-201.55" font-family="Helvetica,sans-Serif" font-size="11.00">pairs &amp;</text>
<text xml:space="preserve" text-anchor="middle" x="280.35" y="-189.55" font-family="Helvetica,sans-Serif" font-size="11.00">verify</text>
</g>
<!-- P2&#45;&gt;GC2 -->
<g id="edge7" class="edge">
<title>P2&#45;&gt;GC2</title>
<path fill="none" stroke="black" stroke-dasharray="5,2" d="M70.73,-157.4C102.04,-154.22 162.62,-150.91 211.35,-165.25 221.04,-168.1 230.76,-172.67 239.7,-177.73"/>
<polygon fill="black" stroke="black" points="237.75,-180.64 248.12,-182.81 241.37,-174.65 237.75,-180.64"/>
<text xml:space="preserve" text-anchor="middle" x="184.35" y="-166.45" font-family="Helvetica,sans-Serif" font-size="9.00">fᵢ(j), gᵢ(j)</text>
</g>
<!-- P3 -->
<g id="node3" class="node">
<title>P3</title>
<ellipse fill="none" stroke="black" cx="48.8" cy="-99" rx="21.6" ry="21.6"/>
<text xml:space="preserve" text-anchor="middle" x="48.8" y="-94.55" font-family="Helvetica,sans-Serif" font-size="11.00">P₃</text>
</g>
<!-- P3&#45;&gt;GC2 -->
<g id="edge8" class="edge">
<title>P3&#45;&gt;GC2</title>
<path fill="none" stroke="black" stroke-dasharray="5,2" d="M70.67,-101.08C102.71,-104.99 165.13,-115.5 211.35,-141.25 227.09,-150.02 241.91,-163.28 253.67,-175.52"/>
<polygon fill="black" stroke="black" points="250.91,-177.7 260.27,-182.66 256.05,-172.94 250.91,-177.7"/>
<text xml:space="preserve" text-anchor="middle" x="184.35" y="-142.45" font-family="Helvetica,sans-Serif" font-size="9.00">fᵢ(j), gᵢ(j)</text>
</g>
<!-- P4 -->
<g id="node4" class="node">
<title>P4</title>
<ellipse fill="none" stroke="black" cx="48.8" cy="-38" rx="21.6" ry="21.6"/>
<text xml:space="preserve" text-anchor="middle" x="48.8" y="-33.55" font-family="Helvetica,sans-Serif" font-size="11.00">P₄</text>
</g>
<!-- P4&#45;&gt;GC2 -->
<g id="edge9" class="edge">
<title>P4&#45;&gt;GC2</title>
<path fill="none" stroke="black" stroke-dasharray="5,2" d="M70.45,-42.16C103.3,-49.63 168.13,-67.94 211.35,-103.25 234.66,-122.29 252.89,-151.45 264.58,-173.84"/>
<polygon fill="black" stroke="black" points="261.34,-175.19 268.96,-182.55 267.6,-172.05 261.34,-175.19"/>
<text xml:space="preserve" text-anchor="middle" x="184.35" y="-104.45" font-family="Helvetica,sans-Serif" font-size="9.00">fᵢ(j), gᵢ(j)</text>
</g>
<!-- GC1&#45;&gt;GC2 -->
<g id="edge1" class="edge">
<title>GC1&#45;&gt;GC2</title>
<path fill="none" stroke="black" d="M211.78,-206C219.55,-206 228.25,-206 236.75,-206"/>
<polygon fill="black" stroke="black" points="236.61,-209.5 246.61,-206 236.61,-202.5 236.61,-209.5"/>
</g>
<!-- GC3 -->
<g id="node7" class="node">
<title>GC3</title>
<path fill="#dae8fc" stroke="black" d="M398.35,-228C398.35,-228 361.35,-228 361.35,-228 355.35,-228 349.35,-222 349.35,-216 349.35,-216 349.35,-196 349.35,-196 349.35,-190 355.35,-184 361.35,-184 361.35,-184 398.35,-184 398.35,-184 404.35,-184 410.35,-190 410.35,-196 410.35,-196 410.35,-216 410.35,-216 410.35,-222 404.35,-228 398.35,-228"/>
<text xml:space="preserve" text-anchor="middle" x="379.85" y="-213.55" font-family="Helvetica,sans-Serif" font-size="11.00">STAR</text>
<text xml:space="preserve" text-anchor="middle" x="379.85" y="-201.55" font-family="Helvetica,sans-Serif" font-size="11.00">&amp; CORE</text>
<text xml:space="preserve" text-anchor="middle" x="379.85" y="-189.55" font-family="Helvetica,sans-Serif" font-size="11.00">formation</text>
</g>
<!-- GC2&#45;&gt;GC3 -->
<g id="edge2" class="edge">
<title>GC2&#45;&gt;GC3</title>
<path fill="none" stroke="black" d="M312.74,-206C320.61,-206 329.17,-206 337.45,-206"/>
<polygon fill="black" stroke="black" points="337.34,-209.5 347.34,-206 337.34,-202.5 337.34,-209.5"/>
</g>
<!-- GC4 -->
<g id="node8" class="node">
<title>GC4</title>
<path fill="#dae8fc" stroke="black" d="M492.6,-228C492.6,-228 459.35,-228 459.35,-228 453.35,-228 447.35,-222 447.35,-216 447.35,-216 447.35,-196 447.35,-196 447.35,-190 453.35,-184 459.35,-184 459.35,-184 492.6,-184 492.6,-184 498.6,-184 504.6,-190 504.6,-196 504.6,-196 504.6,-216 504.6,-216 504.6,-222 498.6,-228 492.6,-228"/>
<text xml:space="preserve" text-anchor="middle" x="475.97" y="-213.55" font-family="Helvetica,sans-Serif" font-size="11.00">Reaffirm</text>
<text xml:space="preserve" text-anchor="middle" x="475.97" y="-201.55" font-family="Helvetica,sans-Serif" font-size="11.00">&amp; output</text>
<text xml:space="preserve" text-anchor="middle" x="475.97" y="-189.55" font-family="Helvetica,sans-Serif" font-size="11.00">(m, g)</text>
</g>
<!-- GC3&#45;&gt;GC4 -->
<g id="edge3" class="edge">
<title>GC3&#45;&gt;GC4</title>
<path fill="none" stroke="black" d="M410.63,-206C418.54,-206 427.2,-206 435.54,-206"/>
<polygon fill="black" stroke="black" points="435.48,-209.5 445.48,-206 435.48,-202.5 435.48,-209.5"/>
</g>
<!-- BA1 -->
<g id="node9" class="node">
<title>BA1</title>
<path fill="#d5e8d4" stroke="black" d="M623.35,-261.25C623.35,-261.25 588.6,-261.25 588.6,-261.25 582.6,-261.25 576.6,-255.25 576.6,-249.25 576.6,-249.25 576.6,-224.75 576.6,-224.75 576.6,-218.75 582.6,-212.75 588.6,-212.75 588.6,-212.75 623.35,-212.75 623.35,-212.75 629.35,-212.75 635.35,-218.75 635.35,-224.75 635.35,-224.75 635.35,-249.25 635.35,-249.25 635.35,-255.25 629.35,-261.25 623.35,-261.25"/>
<text xml:space="preserve" text-anchor="middle" x="605.97" y="-246.8" font-family="Helvetica,sans-Serif" font-size="11.00">Input</text>
<text xml:space="preserve" text-anchor="middle" x="605.97" y="-234.8" font-family="Helvetica,sans-Serif" font-size="11.00">g=2 → 1</text>
<text xml:space="preserve" text-anchor="middle" x="605.97" y="-220.55" font-family="Helvetica,sans-Serif" font-size="11.00">else → 0</text>
</g>
<!-- GC4&#45;&gt;BA1 -->
<g id="edge10" class="edge">
<title>GC4&#45;&gt;BA1</title>
<path fill="none" stroke="black" stroke-width="2" d="M505.07,-212.8C522.78,-217.09 545.93,-222.7 565.48,-227.43"/>
<polygon fill="black" stroke="black" stroke-width="2" points="563.02,-230.44 573.57,-229.39 564.67,-223.64 563.02,-230.44"/>
<text xml:space="preserve" text-anchor="middle" x="540.6" y="-236.14" font-family="Helvetica,sans-Serif" font-size="9.00">(m, g)</text>
<text xml:space="preserve" text-anchor="middle" x="540.6" y="-226.39" font-family="Helvetica,sans-Serif" font-size="9.00">per party</text>
</g>
<!-- comm1 -->
<g id="node13" class="node">
<title>comm1</title>
<text xml:space="preserve" text-anchor="middle" x="934.47" y="-179.12" font-family="Helvetica,sans-Serif" font-size="10.00" fill="#666666">O(nL + n³ log n)</text>
</g>
<!-- GC4&#45;&gt;comm1 -->
<!-- BA2 -->
<g id="node10" class="node">
<title>BA2</title>
<path fill="#d5e8d4" stroke="black" d="M714.35,-259C714.35,-259 684.35,-259 684.35,-259 678.35,-259 672.35,-253 672.35,-247 672.35,-247 672.35,-227 672.35,-227 672.35,-221 678.35,-215 684.35,-215 684.35,-215 714.35,-215 714.35,-215 720.35,-215 726.35,-221 726.35,-227 726.35,-227 726.35,-247 726.35,-247 726.35,-253 720.35,-259 714.35,-259"/>
<text xml:space="preserve" text-anchor="middle" x="699.35" y="-244.55" font-family="Helvetica,sans-Serif" font-size="11.00">OLE</text>
<text xml:space="preserve" text-anchor="middle" x="699.35" y="-232.55" font-family="Helvetica,sans-Serif" font-size="11.00">(elect</text>
<text xml:space="preserve" text-anchor="middle" x="699.35" y="-220.55" font-family="Helvetica,sans-Serif" font-size="11.00">leader)</text>
</g>
<!-- BA1&#45;&gt;BA2 -->
<g id="edge4" class="edge">
<title>BA1&#45;&gt;BA2</title>
<path fill="none" stroke="black" d="M635.39,-237C643.45,-237 652.36,-237 660.88,-237"/>
<polygon fill="black" stroke="black" points="660.62,-240.5 670.62,-237 660.62,-233.5 660.62,-240.5"/>
</g>
<!-- BA3 -->
<g id="node11" class="node">
<title>BA3</title>
<path fill="#d5e8d4" stroke="black" d="M805.35,-259C805.35,-259 775.35,-259 775.35,-259 769.35,-259 763.35,-253 763.35,-247 763.35,-247 763.35,-227 763.35,-227 763.35,-221 769.35,-215 775.35,-215 775.35,-215 805.35,-215 805.35,-215 811.35,-215 817.35,-221 817.35,-227 817.35,-227 817.35,-247 817.35,-247 817.35,-253 811.35,-259 805.35,-259"/>
<text xml:space="preserve" text-anchor="middle" x="790.35" y="-244.55" font-family="Helvetica,sans-Serif" font-size="11.00">Agree</text>
<text xml:space="preserve" text-anchor="middle" x="790.35" y="-232.55" font-family="Helvetica,sans-Serif" font-size="11.00">on bit</text>
<text xml:space="preserve" text-anchor="middle" x="790.35" y="-220.55" font-family="Helvetica,sans-Serif" font-size="11.00">y</text>
</g>
<!-- BA2&#45;&gt;BA3 -->
<g id="edge5" class="edge">
<title>BA2&#45;&gt;BA3</title>
<path fill="none" stroke="black" d="M726.57,-237C734.47,-237 743.29,-237 751.78,-237"/>
<polygon fill="black" stroke="black" points="751.49,-240.5 761.49,-237 751.49,-233.5 751.49,-240.5"/>
</g>
<!-- OUT -->
<g id="node12" class="node">
<title>OUT</title>
<path fill="#fff2cc" stroke="black" d="M969.1,-317C969.1,-317 899.85,-317 899.85,-317 893.85,-317 887.85,-311 887.85,-305 887.85,-305 887.85,-291 887.85,-291 887.85,-285 893.85,-279 899.85,-279 899.85,-279 969.1,-279 969.1,-279 975.1,-279 981.1,-285 981.1,-291 981.1,-291 981.1,-305 981.1,-305 981.1,-311 975.1,-317 969.1,-317"/>
<text xml:space="preserve" text-anchor="middle" x="934.47" y="-302.55" font-family="Helvetica,sans-Serif" font-size="11.00">y=1 → output m</text>
<text xml:space="preserve" text-anchor="middle" x="934.47" y="-288.3" font-family="Helvetica,sans-Serif" font-size="11.00">y=0 → output ⊥</text>
</g>
<!-- BA3&#45;&gt;OUT -->
<g id="edge11" class="edge">
<title>BA3&#45;&gt;OUT</title>
<path fill="none" stroke="black" stroke-width="2" d="M817.75,-248.33C834.64,-255.58 857.2,-265.26 877.91,-274.15"/>
<polygon fill="black" stroke="black" stroke-width="2" points="874.86,-276.65 885.43,-277.38 877.62,-270.22 874.86,-276.65"/>
<text xml:space="preserve" text-anchor="middle" x="852.6" y="-274.28" font-family="Helvetica,sans-Serif" font-size="9.00">y ∈ {0,1}</text>
</g>
<!-- comm2 -->
<g id="node14" class="node">
<title>comm2</title>
<text xml:space="preserve" text-anchor="middle" x="934.47" y="-233.12" font-family="Helvetica,sans-Serif" font-size="10.00" fill="#666666">E(O(n⁴ log n))</text>
</g>
<!-- BA3&#45;&gt;comm2 -->
</g>
</svg>
