<?xml version="1.0" encoding="UTF-8" standalone="no"?>
<!DOCTYPE svg PUBLIC "-//W3C//DTD SVG 1.1//EN"
 "http://www.w3.org/Graphics/SVG/1.1/DTD/svg11.dtd">
<!-- Generated by graphviz version 14.1.2 (20260124.0452)
 -->
<!-- Title: contradiction Pages: 1 -->
<svg width="971pt" height="674pt"
 viewBox="0.00 0.00 971.00 674.00" xmlns="http://www.w3.org/2000/svg" xmlns:xlink="http://www.w3.org/1999/xlink">
<g id="graph0" class="graph" transform="scale(1 1) rotate(0) translate(4 669.5)">
<title>contradiction</title>
<polygon fill="white" stroke="none" points="-4,4 -4,-669.5 967.33,-669.5 967.33,4 -4,4"/>
<text xml:space="preserve" text-anchor="start" x="206.04" y="-647.3" font-family="Helvetica,sans-Serif" font-weight="bold" font-size="16.00">Contradiction: identical view for nodes 2,3 but different required outputs</text>
<g id="clust1" class="cluster">
<title>cluster_v0</title>
<path fill="#f1f8e9" stroke="#2e7d32" stroke-width="2" d="M60.55,-243C60.55,-243 454.94,-243 454.94,-243 460.94,-243 466.94,-249 466.94,-255 466.94,-255 466.94,-621 466.94,-621 466.94,-627 460.94,-633 454.94,-633 454.94,-633 60.55,-633 60.55,-633 54.55,-633 48.55,-627 48.55,-621 48.55,-621 48.55,-255 48.55,-255 48.55,-249 54.55,-243 60.55,-243"/>
<text xml:space="preserve" text-anchor="start" x="179.74" y="-617.65" font-family="Helvetica,sans-Serif" font-weight="bold" font-size="13.00">From v=0: must output 0</text>
</g>
<g id="clust6" class="cluster">
<title>cluster_v1</title>
<path fill="#fff3e0" stroke="#c62828" stroke-width="2" d="M548.94,-8C548.94,-8 943.33,-8 943.33,-8 949.33,-8 955.33,-14 955.33,-20 955.33,-20 955.33,-386 955.33,-386 955.33,-392 949.33,-398 943.33,-398 943.33,-398 548.94,-398 548.94,-398 542.94,-398 536.94,-392 536.94,-386 536.94,-386 536.94,-20 536.94,-20 536.94,-14 542.94,-8 548.94,-8"/>
<text xml:space="preserve" text-anchor="start" x="668.13" y="-382.65" font-family="Helvetica,sans-Serif" font-weight="bold" font-size="13.00">From v=1: must output 1</text>
</g>
<!-- v0_t0 -->
<g id="node1" class="node">
<title>v0_t0</title>
<text xml:space="preserve" text-anchor="start" x="84.8" y="-265.55" font-family="Helvetica,sans-Serif" font-style="italic" font-size="11.00">t=0</text>
</g>
<!-- v0_t1 -->
<g id="node2" class="node">
<title>v0_t1</title>
<text xml:space="preserve" text-anchor="start" x="317.44" y="-265.55" font-family="Helvetica,sans-Serif" font-style="italic" font-size="11.00">t=1</text>
</g>
<!-- v0_t0&#45;&gt;v0_t1 -->
<!-- v0_t2 -->
<g id="node3" class="node">
<title>v0_t2</title>
<text xml:space="preserve" text-anchor="start" x="435.19" y="-265.55" font-family="Helvetica,sans-Serif" font-style="italic" font-size="11.00">t=2</text>
</g>
<!-- v0_t1&#45;&gt;v0_t2 -->
<!-- v0_L1 -->
<g id="node4" class="node">
<title>v0_L1</title>
<text xml:space="preserve" text-anchor="start" x="64.55" y="-342.4" font-family="Helvetica,sans-Serif" font-weight="bold" font-size="13.00" fill="#e74c3c">1 (faulty)</text>
</g>
<!-- v0_L2 -->
<g id="node5" class="node">
<title>v0_L2</title>
<text xml:space="preserve" text-anchor="middle" x="92.67" y="-500.4" font-family="Helvetica,sans-Serif" font-weight="bold" font-size="13.00">2</text>
</g>
<!-- v0_L1&#45;&gt;v0_L2 -->
<!-- v0_n1_0 -->
<g id="node8" class="node">
<title>v0_n1_0</title>
<ellipse fill="#333333" stroke="#333333" cx="219.12" cy="-348" rx="4.32" ry="4.32"/>
</g>
<!-- v0_L1&#45;&gt;v0_n1_0 -->
<!-- v0_L3 -->
<g id="node6" class="node">
<title>v0_L3</title>
<text xml:space="preserve" text-anchor="middle" x="92.67" y="-421.4" font-family="Helvetica,sans-Serif" font-weight="bold" font-size="13.00">3</text>
</g>
<!-- v0_L2&#45;&gt;v0_L3 -->
<!-- v0_n2_0 -->
<g id="node11" class="node">
<title>v0_n2_0</title>
<ellipse fill="#333333" stroke="#333333" cx="219.12" cy="-493" rx="4.32" ry="4.32"/>
</g>
<!-- v0_L2&#45;&gt;v0_n2_0 -->
<!-- v0_L4 -->
<g id="node7" class="node">
<title>v0_L4</title>
<text xml:space="preserve" text-anchor="start" x="64.55" y="-579.4" font-family="Helvetica,sans-Serif" font-weight="bold" font-size="13.00" fill="#e74c3c">4 (faulty)</text>
</g>
<!-- v0_L3&#45;&gt;v0_L4 -->
<!-- v0_n3_0 -->
<g id="node14" class="node">
<title>v0_n3_0</title>
<ellipse fill="#333333" stroke="#333333" cx="219.12" cy="-441" rx="4.32" ry="4.32"/>
</g>
<!-- v0_L3&#45;&gt;v0_n3_0 -->
<!-- v0_n4_0 -->
<g id="node17" class="node">
<title>v0_n4_0</title>
<ellipse fill="#333333" stroke="#333333" cx="219.12" cy="-585" rx="4.32" ry="4.32"/>
</g>
<!-- v0_L4&#45;&gt;v0_n4_0 -->
<!-- v0_n1_1 -->
<g id="node9" class="node">
<title>v0_n1_1</title>
<ellipse fill="#333333" stroke="#333333" cx="325.31" cy="-348" rx="4.32" ry="4.32"/>
</g>
<!-- v0_n1_0&#45;&gt;v0_n1_1 -->
<g id="edge10" class="edge">
<title>v0_n1_0&#45;&gt;v0_n1_1</title>
<path fill="none" stroke="#e74c3c" stroke-width="1.5" stroke-dasharray="5,2" d="M223.58,-348C239.4,-348 304.66,-348 320.73,-348"/>
</g>
<!-- v0_n1_2 -->
<g id="node10" class="node">
<title>v0_n1_2</title>
<ellipse fill="#333333" stroke="#333333" cx="443.06" cy="-348" rx="4.32" ry="4.32"/>
</g>
<!-- v0_n1_1&#45;&gt;v0_n1_2 -->
<g id="edge11" class="edge">
<title>v0_n1_1&#45;&gt;v0_n1_2</title>
<path fill="none" stroke="#e74c3c" stroke-width="1.5" stroke-dasharray="5,2" d="M329.9,-348C347.15,-348 421.36,-348 438.51,-348"/>
</g>
<!-- v0_n2_1 -->
<g id="node12" class="node">
<title>v0_n2_1</title>
<ellipse fill="#333333" stroke="#333333" cx="325.31" cy="-441" rx="4.32" ry="4.32"/>
</g>
<!-- v0_n2_0&#45;&gt;v0_n2_1 -->
<g id="edge12" class="edge">
<title>v0_n2_0&#45;&gt;v0_n2_1</title>
<path fill="none" stroke="#333333" stroke-width="1.5" d="M223.58,-491.27C239.55,-483.3 305.83,-450.22 321.14,-442.58"/>
</g>
<!-- v0_n3_1 -->
<g id="node15" class="node">
<title>v0_n3_1</title>
<ellipse fill="#333333" stroke="#333333" cx="325.31" cy="-493" rx="4.32" ry="4.32"/>
</g>
<!-- v0_n2_0&#45;&gt;v0_n3_1 -->
<g id="edge18" class="edge">
<title>v0_n2_0&#45;&gt;v0_n3_1</title>
<path fill="none" stroke="#3498db" d="M223.58,-493C237.61,-493 290.51,-493 313.52,-493"/>
<polygon fill="#3498db" stroke="#3498db" points="319.51,-493 313.51,-495.7 317.73,-493 313.51,-493 313.51,-493 313.51,-493 317.73,-493 313.51,-490.3 319.51,-493"/>
</g>
<!-- v0_n2_2 -->
<g id="node13" class="node">
<title>v0_n2_2</title>
<ellipse fill="#333333" stroke="#333333" cx="443.06" cy="-493" rx="4.32" ry="4.32"/>
</g>
<!-- v0_n2_1&#45;&gt;v0_n2_2 -->
<g id="edge13" class="edge">
<title>v0_n2_1&#45;&gt;v0_n2_2</title>
<path fill="none" stroke="#333333" stroke-width="1.5" d="M329.65,-442.5C346.56,-450.09 422.52,-484.22 438.93,-491.59"/>
</g>
<!-- v0_n3_2 -->
<g id="node16" class="node">
<title>v0_n3_2</title>
<ellipse fill="#333333" stroke="#333333" cx="443.06" cy="-441" rx="4.32" ry="4.32"/>
</g>
<!-- v0_n2_1&#45;&gt;v0_n3_2 -->
<g id="edge20" class="edge">
<title>v0_n2_1&#45;&gt;v0_n3_2</title>
<path fill="none" stroke="#3498db" d="M329.9,-441C345.33,-441 406.34,-441 431.32,-441"/>
<polygon fill="#3498db" stroke="#3498db" points="437.3,-441 431.3,-443.7 435.51,-441 431.3,-441 431.3,-441 431.3,-441 435.51,-441 431.3,-438.3 437.3,-441"/>
</g>
<!-- v0_n3_0&#45;&gt;v0_n2_1 -->
<g id="edge19" class="edge">
<title>v0_n3_0&#45;&gt;v0_n2_1</title>
<path fill="none" stroke="#2ecc71" d="M223.58,-441C237.61,-441 290.51,-441 313.52,-441"/>
<polygon fill="#2ecc71" stroke="#2ecc71" points="319.51,-441 313.51,-443.7 317.73,-441 313.51,-441 313.51,-441 313.51,-441 317.73,-441 313.51,-438.3 319.51,-441"/>
</g>
<!-- v0_n3_0&#45;&gt;v0_n3_1 -->
<g id="edge14" class="edge">
<title>v0_n3_0&#45;&gt;v0_n3_1</title>
<path fill="none" stroke="#333333" stroke-width="1.5" d="M223.58,-442.73C239.55,-450.7 305.83,-483.78 321.14,-491.42"/>
</g>
<!-- v0_n3_1&#45;&gt;v0_n2_2 -->
<g id="edge21" class="edge">
<title>v0_n3_1&#45;&gt;v0_n2_2</title>
<path fill="none" stroke="#2ecc71" d="M329.9,-493C345.33,-493 406.34,-493 431.32,-493"/>
<polygon fill="#2ecc71" stroke="#2ecc71" points="437.3,-493 431.3,-495.7 435.51,-493 431.3,-493 431.3,-493 431.3,-493 435.51,-493 431.3,-490.3 437.3,-493"/>
</g>
<!-- v0_n3_1&#45;&gt;v0_n3_2 -->
<g id="edge15" class="edge">
<title>v0_n3_1&#45;&gt;v0_n3_2</title>
<path fill="none" stroke="#333333" stroke-width="1.5" d="M329.65,-491.5C346.56,-483.91 422.52,-449.78 438.93,-442.41"/>
</g>
<!-- eq -->
<g id="node20" class="node">
<title>eq</title>
<text xml:space="preserve" text-anchor="start" x="566.81" y="-432.3" font-family="Helvetica,sans-Serif" font-weight="bold" font-size="36.00">≡</text>
</g>
<!-- v0_n3_2&#45;&gt;eq -->
<!-- v0_n4_1 -->
<g id="node18" class="node">
<title>v0_n4_1</title>
<ellipse fill="#333333" stroke="#333333" cx="325.31" cy="-585" rx="4.32" ry="4.32"/>
</g>
<!-- v0_n4_0&#45;&gt;v0_n4_1 -->
<g id="edge16" class="edge">
<title>v0_n4_0&#45;&gt;v0_n4_1</title>
<path fill="none" stroke="#9b59b6" stroke-width="1.5" stroke-dasharray="5,2" d="M223.58,-585C239.4,-585 304.66,-585 320.73,-585"/>
</g>
<!-- v0_n4_2 -->
<g id="node19" class="node">
<title>v0_n4_2</title>
<ellipse fill="#333333" stroke="#333333" cx="443.06" cy="-585" rx="4.32" ry="4.32"/>
</g>
<!-- v0_n4_1&#45;&gt;v0_n4_2 -->
<g id="edge17" class="edge">
<title>v0_n4_1&#45;&gt;v0_n4_2</title>
<path fill="none" stroke="#9b59b6" stroke-width="1.5" stroke-dasharray="5,2" d="M329.9,-585C347.15,-585 421.36,-585 438.51,-585"/>
</g>
<!-- v1_n2_0 -->
<g id="node31" class="node">
<title>v1_n2_0</title>
<ellipse fill="#333333" stroke="#333333" cx="707.51" cy="-350" rx="4.32" ry="4.32"/>
</g>
<!-- eq&#45;&gt;v1_n2_0 -->
<!-- v1_t0 -->
<g id="node21" class="node">
<title>v1_t0</title>
<text xml:space="preserve" text-anchor="start" x="573.19" y="-30.55" font-family="Helvetica,sans-Serif" font-style="italic" font-size="11.00">t=0</text>
</g>
<!-- v1_t1 -->
<g id="node22" class="node">
<title>v1_t1</title>
<text xml:space="preserve" text-anchor="start" x="805.83" y="-30.55" font-family="Helvetica,sans-Serif" font-style="italic" font-size="11.00">t=1</text>
</g>
<!-- v1_t0&#45;&gt;v1_t1 -->
<!-- v1_t2 -->
<g id="node23" class="node">
<title>v1_t2</title>
<text xml:space="preserve" text-anchor="start" x="923.58" y="-30.55" font-family="Helvetica,sans-Serif" font-style="italic" font-size="11.00">t=2</text>
</g>
<!-- v1_t1&#45;&gt;v1_t2 -->
<!-- v1_L1 -->
<g id="node24" class="node">
<title>v1_L1</title>
<text xml:space="preserve" text-anchor="start" x="552.94" y="-107.4" font-family="Helvetica,sans-Serif" font-weight="bold" font-size="13.00" fill="#e74c3c">1 (faulty)</text>
</g>
<!-- v1_L2 -->
<g id="node25" class="node">
<title>v1_L2</title>
<text xml:space="preserve" text-anchor="middle" x="581.06" y="-344.4" font-family="Helvetica,sans-Serif" font-weight="bold" font-size="13.00">2</text>
</g>
<!-- v1_L1&#45;&gt;v1_L2 -->
<!-- v1_n1_0 -->
<g id="node28" class="node">
<title>v1_n1_0</title>
<ellipse fill="#333333" stroke="#333333" cx="707.51" cy="-113" rx="4.32" ry="4.32"/>
</g>
<!-- v1_L1&#45;&gt;v1_n1_0 -->
<!-- v1_L3 -->
<g id="node26" class="node">
<title>v1_L3</title>
<text xml:space="preserve" text-anchor="middle" x="581.06" y="-265.4" font-family="Helvetica,sans-Serif" font-weight="bold" font-size="13.00">3</text>
</g>
<!-- v1_L2&#45;&gt;v1_L3 -->
<!-- v1_L2&#45;&gt;v1_n2_0 -->
<!-- v1_L4 -->
<g id="node27" class="node">
<title>v1_L4</title>
<text xml:space="preserve" text-anchor="start" x="552.94" y="-186.4" font-family="Helvetica,sans-Serif" font-weight="bold" font-size="13.00" fill="#e74c3c">4 (faulty)</text>
</g>
<!-- v1_L3&#45;&gt;v1_L4 -->
<!-- v1_n3_0 -->
<g id="node34" class="node">
<title>v1_n3_0</title>
<ellipse fill="#333333" stroke="#333333" cx="707.51" cy="-298" rx="4.32" ry="4.32"/>
</g>
<!-- v1_L3&#45;&gt;v1_n3_0 -->
<!-- v1_n4_0 -->
<g id="node37" class="node">
<title>v1_n4_0</title>
<ellipse fill="#333333" stroke="#333333" cx="707.51" cy="-192" rx="4.32" ry="4.32"/>
</g>
<!-- v1_L4&#45;&gt;v1_n4_0 -->
<!-- v1_n1_1 -->
<g id="node29" class="node">
<title>v1_n1_1</title>
<ellipse fill="#333333" stroke="#333333" cx="813.7" cy="-113" rx="4.32" ry="4.32"/>
</g>
<!-- v1_n1_0&#45;&gt;v1_n1_1 -->
<g id="edge31" class="edge">
<title>v1_n1_0&#45;&gt;v1_n1_1</title>
<path fill="none" stroke="#e74c3c" stroke-width="1.5" stroke-dasharray="5,2" d="M711.97,-113C727.79,-113 793.05,-113 809.12,-113"/>
</g>
<!-- v1_n1_2 -->
<g id="node30" class="node">
<title>v1_n1_2</title>
<ellipse fill="#333333" stroke="#333333" cx="931.45" cy="-113" rx="4.32" ry="4.32"/>
</g>
<!-- v1_n1_1&#45;&gt;v1_n1_2 -->
<g id="edge32" class="edge">
<title>v1_n1_1&#45;&gt;v1_n1_2</title>
<path fill="none" stroke="#e74c3c" stroke-width="1.5" stroke-dasharray="5,2" d="M818.29,-113C835.54,-113 909.75,-113 926.9,-113"/>
</g>
<!-- v1_n2_1 -->
<g id="node32" class="node">
<title>v1_n2_1</title>
<ellipse fill="#333333" stroke="#333333" cx="813.7" cy="-350" rx="4.32" ry="4.32"/>
</g>
<!-- v1_n2_0&#45;&gt;v1_n2_1 -->
<g id="edge33" class="edge">
<title>v1_n2_0&#45;&gt;v1_n2_1</title>
<path fill="none" stroke="#333333" stroke-width="1.5" d="M711.97,-350C727.79,-350 793.05,-350 809.12,-350"/>
</g>
<!-- v1_n3_1 -->
<g id="node35" class="node">
<title>v1_n3_1</title>
<ellipse fill="#333333" stroke="#333333" cx="813.7" cy="-298" rx="4.32" ry="4.32"/>
</g>
<!-- v1_n2_0&#45;&gt;v1_n3_1 -->
<g id="edge39" class="edge">
<title>v1_n2_0&#45;&gt;v1_n3_1</title>
<path fill="none" stroke="#3498db" d="M711.97,-348.27C726.25,-341.14 780.8,-313.92 803.11,-302.79"/>
<polygon fill="#3498db" stroke="#3498db" points="808.44,-300.13 804.28,-305.22 806.85,-300.92 803.08,-302.8 803.08,-302.8 803.08,-302.8 806.85,-300.92 801.87,-300.39 808.44,-300.13"/>
</g>
<!-- v1_n2_2 -->
<g id="node33" class="node">
<title>v1_n2_2</title>
<ellipse fill="#333333" stroke="#333333" cx="931.45" cy="-350" rx="4.32" ry="4.32"/>
</g>
<!-- v1_n2_1&#45;&gt;v1_n2_2 -->
<g id="edge34" class="edge">
<title>v1_n2_1&#45;&gt;v1_n2_2</title>
<path fill="none" stroke="#333333" stroke-width="1.5" d="M818.29,-350C835.54,-350 909.75,-350 926.9,-350"/>
</g>
<!-- v1_n3_2 -->
<g id="node36" class="node">
<title>v1_n3_2</title>
<ellipse fill="#333333" stroke="#333333" cx="931.45" cy="-298" rx="4.32" ry="4.32"/>
</g>
<!-- v1_n2_1&#45;&gt;v1_n3_2 -->
<g id="edge41" class="edge">
<title>v1_n2_1&#45;&gt;v1_n3_2</title>
<path fill="none" stroke="#3498db" d="M818.04,-348.5C833.29,-341.65 896.63,-313.19 920.92,-302.28"/>
<polygon fill="#3498db" stroke="#3498db" points="926.21,-299.91 921.84,-304.83 924.58,-300.64 920.74,-302.37 920.74,-302.37 920.74,-302.37 924.58,-300.64 919.63,-299.9 926.21,-299.91"/>
</g>
<!-- v1_n3_0&#45;&gt;v1_n2_1 -->
<g id="edge40" class="edge">
<title>v1_n3_0&#45;&gt;v1_n2_1</title>
<path fill="none" stroke="#2ecc71" d="M711.97,-299.73C726.25,-306.86 780.8,-334.08 803.11,-345.21"/>
<polygon fill="#2ecc71" stroke="#2ecc71" points="808.44,-347.87 801.87,-347.61 806.85,-347.08 803.08,-345.2 803.08,-345.2 803.08,-345.2 806.85,-347.08 804.28,-342.78 808.44,-347.87"/>
</g>
<!-- v1_n3_0&#45;&gt;v1_n3_1 -->
<g id="edge35" class="edge">
<title>v1_n3_0&#45;&gt;v1_n3_1</title>
<path fill="none" stroke="#333333" stroke-width="1.5" d="M711.97,-298C727.79,-298 793.05,-298 809.12,-298"/>
</g>
<!-- v1_n3_1&#45;&gt;v1_n2_2 -->
<g id="edge42" class="edge">
<title>v1_n3_1&#45;&gt;v1_n2_2</title>
<path fill="none" stroke="#2ecc71" d="M818.04,-299.5C833.29,-306.35 896.63,-334.81 920.92,-345.72"/>
<polygon fill="#2ecc71" stroke="#2ecc71" points="926.21,-348.09 919.63,-348.1 924.58,-347.36 920.74,-345.63 920.74,-345.63 920.74,-345.63 924.58,-347.36 921.84,-343.17 926.21,-348.09"/>
</g>
<!-- v1_n3_1&#45;&gt;v1_n3_2 -->
<g id="edge36" class="edge">
<title>v1_n3_1&#45;&gt;v1_n3_2</title>
<path fill="none" stroke="#333333" stroke-width="1.5" d="M818.29,-298C835.54,-298 909.75,-298 926.9,-298"/>
</g>
<!-- v1_n4_1 -->
<g id="node38" class="node">
<title>v1_n4_1</title>
<ellipse fill="#333333" stroke="#333333" cx="813.7" cy="-192" rx="4.32" ry="4.32"/>
</g>
<!-- v1_n4_0&#45;&gt;v1_n4_1 -->
<g id="edge37" class="edge">
<title>v1_n4_0&#45;&gt;v1_n4_1</title>
<path fill="none" stroke="#9b59b6" stroke-width="1.5" stroke-dasharray="5,2" d="M711.97,-192C727.79,-192 793.05,-192 809.12,-192"/>
</g>
<!-- v1_n4_2 -->
<g id="node39" class="node">
<title>v1_n4_2</title>
<ellipse fill="#333333" stroke="#333333" cx="931.45" cy="-192" rx="4.32" ry="4.32"/>
</g>
<!-- v1_n4_1&#45;&gt;v1_n4_2 -->
<g id="edge38" class="edge">
<title>v1_n4_1&#45;&gt;v1_n4_2</title>
<path fill="none" stroke="#9b59b6" stroke-width="1.5" stroke-dasharray="5,2" d="M818.29,-192C835.54,-192 909.75,-192 926.9,-192"/>
</g>
</g>
</svg>
