<?xml version="1.0" encoding="UTF-8" standalone="no"?>
<!DOCTYPE svg PUBLIC "-//W3C//DTD SVG 1.1//EN"
 "http://www.w3.org/Graphics/SVG/1.1/DTD/svg11.dtd">
<!-- Generated by graphviz version 14.1.2 (20260124.0452)
 -->
<!-- Title: ole_hierarchy Pages: 1 -->
<svg width="633pt" height="320pt"
 viewBox="0.00 0.00 633.00 320.00" xmlns="http://www.w3.org/2000/svg" xmlns:xlink="http://www.w3.org/1999/xlink">
<g id="graph0" class="graph" transform="scale(1 1) rotate(0) translate(4 315.6)">
<title>ole_hierarchy</title>
<polygon fill="white" stroke="none" points="-4,4 -4,-315.6 628.62,-315.6 628.62,4 -4,4"/>
<text xml:space="preserve" text-anchor="start" x="143.56" y="-293.4" font-family="Helvetica,sans-Serif" font-weight="bold" font-size="16.00">Hierarchy of Oblivious Evaluation Primitives</text>
<!-- ot -->
<g id="node1" class="node">
<title>ot</title>
<path fill="#aed6f1" stroke="#666666" stroke-width="1.5" d="M340.62,-287.1C340.62,-287.1 220.62,-287.1 220.62,-287.1 214.62,-287.1 208.62,-281.1 208.62,-275.1 208.62,-275.1 208.62,-255.9 208.62,-255.9 208.62,-249.9 214.62,-243.9 220.62,-243.9 220.62,-243.9 340.62,-243.9 340.62,-243.9 346.62,-243.9 352.62,-249.9 352.62,-255.9 352.62,-255.9 352.62,-275.1 352.62,-275.1 352.62,-281.1 346.62,-287.1 340.62,-287.1"/>
<text xml:space="preserve" text-anchor="start" x="272.38" y="-266.1" font-family="Helvetica,sans-Serif" font-weight="bold" font-size="12.00">OT</text>
<text xml:space="preserve" text-anchor="start" x="265.25" y="-256" font-family="Helvetica,sans-Serif" font-size="10.00">over 𝔽₂</text>
</g>
<!-- ole -->
<g id="node2" class="node">
<title>ole</title>
<path fill="#f9e79f" stroke="#666666" stroke-width="1.5" d="M340.62,-165.15C340.62,-165.15 220.62,-165.15 220.62,-165.15 214.62,-165.15 208.62,-159.15 208.62,-153.15 208.62,-153.15 208.62,-133.95 208.62,-133.95 208.62,-127.95 214.62,-121.95 220.62,-121.95 220.62,-121.95 340.62,-121.95 340.62,-121.95 346.62,-121.95 352.62,-127.95 352.62,-133.95 352.62,-133.95 352.62,-153.15 352.62,-153.15 352.62,-159.15 346.62,-165.15 340.62,-165.15"/>
<text xml:space="preserve" text-anchor="start" x="268.25" y="-144.15" font-family="Helvetica,sans-Serif" font-weight="bold" font-size="12.00">OLE</text>
<text xml:space="preserve" text-anchor="start" x="242.75" y="-134.05" font-family="Helvetica,sans-Serif" font-size="10.00">y = ax + b over 𝔽</text>
</g>
<!-- ot&#45;&gt;ole -->
<g id="edge1" class="edge">
<title>ot&#45;&gt;ole</title>
<path fill="none" stroke="#2e86c1" stroke-width="1.5" d="M280.62,-243.33C280.62,-224.57 280.62,-196.94 280.62,-175.67"/>
<polygon fill="#2e86c1" stroke="#2e86c1" stroke-width="1.5" points="283.43,-175.78 280.63,-167.78 277.83,-175.78 283.43,-175.78"/>
<text xml:space="preserve" text-anchor="start" x="280.62" y="-201.4" font-family="Helvetica,sans-Serif" font-size="10.00"> &#160;𝔽₂ → 𝔽 &#160;</text>
</g>
<!-- ope -->
<g id="node3" class="node">
<title>ope</title>
<path fill="#fadbd8" stroke="#666666" stroke-width="1.5" d="M340.62,-43.2C340.62,-43.2 220.62,-43.2 220.62,-43.2 214.62,-43.2 208.62,-37.2 208.62,-31.2 208.62,-31.2 208.62,-12 208.62,-12 208.62,-6 214.62,0 220.62,0 220.62,0 340.62,0 340.62,0 346.62,0 352.62,-6 352.62,-12 352.62,-12 352.62,-31.2 352.62,-31.2 352.62,-37.2 346.62,-43.2 340.62,-43.2"/>
<text xml:space="preserve" text-anchor="start" x="267.88" y="-22.2" font-family="Helvetica,sans-Serif" font-weight="bold" font-size="12.00">OPE</text>
<text xml:space="preserve" text-anchor="start" x="237.12" y="-12.1" font-family="Helvetica,sans-Serif" font-size="10.00">y = P(x), deg(P) = d</text>
</g>
<!-- ole&#45;&gt;ope -->
<g id="edge2" class="edge">
<title>ole&#45;&gt;ope</title>
<path fill="none" stroke="#c0392b" stroke-width="1.5" d="M280.62,-121.38C280.62,-102.62 280.62,-74.99 280.62,-53.72"/>
<polygon fill="#c0392b" stroke="#c0392b" stroke-width="1.5" points="283.43,-53.83 280.63,-45.83 277.83,-53.83 283.43,-53.83"/>
<text xml:space="preserve" text-anchor="start" x="280.62" y="-79.45" font-family="Helvetica,sans-Serif" font-size="10.00"> &#160;deg 1 → deg d &#160;</text>
</g>
<!-- vole -->
<g id="node4" class="node">
<title>vole</title>
<path fill="#d5f5e3" stroke="#666666" stroke-width="1.5" d="M600.62,-165.15C600.62,-165.15 480.62,-165.15 480.62,-165.15 474.62,-165.15 468.62,-159.15 468.62,-153.15 468.62,-153.15 468.62,-133.95 468.62,-133.95 468.62,-127.95 474.62,-121.95 480.62,-121.95 480.62,-121.95 600.62,-121.95 600.62,-121.95 606.62,-121.95 612.62,-127.95 612.62,-133.95 612.62,-133.95 612.62,-153.15 612.62,-153.15 612.62,-159.15 606.62,-165.15 600.62,-165.15"/>
<text xml:space="preserve" text-anchor="start" x="524.12" y="-144.15" font-family="Helvetica,sans-Serif" font-weight="bold" font-size="12.00">VOLE</text>
<text xml:space="preserve" text-anchor="start" x="499" y="-134.05" font-family="Helvetica,sans-Serif" font-size="10.00">𝐲 = a·𝐱 + 𝐛 over 𝔽ⁿ</text>
</g>
<!-- ole&#45;&gt;vole -->
<g id="edge3" class="edge">
<title>ole&#45;&gt;vole</title>
<path fill="none" stroke="#27ae60" stroke-width="1.5" d="M353.05,-143.55C385.73,-143.55 424.5,-143.55 458.29,-143.55"/>
<polygon fill="#27ae60" stroke="#27ae60" stroke-width="1.5" points="457.87,-146.35 465.87,-143.55 457.87,-140.75 457.87,-146.35"/>
<text xml:space="preserve" text-anchor="start" x="384.75" y="-148.3" font-family="Helvetica,sans-Serif" font-size="10.00"> &#160;vectorize &#160;</text>
</g>
<!-- pcg -->
<g id="node5" class="node">
<title>pcg</title>
<path fill="#e8daef" stroke="#666666" stroke-width="1.5" d="M600.62,-43.2C600.62,-43.2 480.62,-43.2 480.62,-43.2 474.62,-43.2 468.62,-37.2 468.62,-31.2 468.62,-31.2 468.62,-12 468.62,-12 468.62,-6 474.62,0 480.62,0 480.62,0 600.62,0 600.62,0 606.62,0 612.62,-6 612.62,-12 612.62,-12 612.62,-31.2 612.62,-31.2 612.62,-37.2 606.62,-43.2 600.62,-43.2"/>
<text xml:space="preserve" text-anchor="start" x="506.5" y="-22.2" font-family="Helvetica,sans-Serif" font-weight="bold" font-size="12.00">Silent VOLE</text>
<text xml:space="preserve" text-anchor="start" x="490.38" y="-12.1" font-family="Helvetica,sans-Serif" font-size="10.00">via PCGs (LPN&#45;based)</text>
</g>
<!-- vole&#45;&gt;pcg -->
<g id="edge4" class="edge">
<title>vole&#45;&gt;pcg</title>
<path fill="none" stroke="#8e44ad" stroke-width="1.5" stroke-dasharray="5,2" d="M540.62,-121.38C540.62,-102.62 540.62,-74.99 540.62,-53.72"/>
<polygon fill="#8e44ad" stroke="#8e44ad" stroke-width="1.5" points="543.43,-53.83 540.63,-45.83 537.83,-53.83 543.43,-53.83"/>
<text xml:space="preserve" text-anchor="start" x="540.62" y="-78.7" font-family="Helvetica,sans-Serif" font-size="10.00"> &#160;sublinear comm. &#160;</text>
</g>
<!-- ot_note -->
<g id="node6" class="node">
<title>ot_note</title>
<path fill="none" stroke="none" stroke-width="1.5" d="M80.75,-287.1C80.75,-287.1 20.5,-287.1 20.5,-287.1 14.5,-287.1 8.5,-281.1 8.5,-275.1 8.5,-275.1 8.5,-255.9 8.5,-255.9 8.5,-249.9 14.5,-243.9 20.5,-243.9 20.5,-243.9 80.75,-243.9 80.75,-243.9 86.75,-243.9 92.75,-249.9 92.75,-255.9 92.75,-255.9 92.75,-275.1 92.75,-275.1 92.75,-281.1 86.75,-287.1 80.75,-287.1"/>
<text xml:space="preserve" text-anchor="start" x="23.62" y="-267" font-family="Helvetica,sans-Serif" font-style="italic" font-size="10.00" fill="#777777">complete for</text>
<text xml:space="preserve" text-anchor="start" x="16.5" y="-257" font-family="Helvetica,sans-Serif" font-style="italic" font-size="10.00" fill="#777777">boolean circuits</text>
</g>
<!-- ot_note&#45;&gt;ot -->
<g id="edge5" class="edge">
<title>ot_note&#45;&gt;ot</title>
<path fill="none" stroke="#aaaaaa" stroke-width="1.5" stroke-dasharray="1,5" d="M92.4,-265.5C131,-265.5 169.6,-265.5 208.2,-265.5"/>
</g>
<!-- ole_note -->
<g id="node7" class="node">
<title>ole_note</title>
<path fill="none" stroke="none" stroke-width="1.5" d="M81.25,-165.15C81.25,-165.15 12,-165.15 12,-165.15 6,-165.15 0,-159.15 0,-153.15 0,-153.15 0,-133.95 0,-133.95 0,-127.95 6,-121.95 12,-121.95 12,-121.95 81.25,-121.95 81.25,-121.95 87.25,-121.95 93.25,-127.95 93.25,-133.95 93.25,-133.95 93.25,-153.15 93.25,-153.15 93.25,-159.15 87.25,-165.15 81.25,-165.15"/>
<text xml:space="preserve" text-anchor="start" x="19.62" y="-145.05" font-family="Helvetica,sans-Serif" font-style="italic" font-size="10.00" fill="#777777">complete for</text>
<text xml:space="preserve" text-anchor="start" x="8" y="-135.05" font-family="Helvetica,sans-Serif" font-style="italic" font-size="10.00" fill="#777777">arithmetic circuits</text>
</g>
<!-- ole_note&#45;&gt;ole -->
<g id="edge6" class="edge">
<title>ole_note&#45;&gt;ole</title>
<path fill="none" stroke="#aaaaaa" stroke-width="1.5" stroke-dasharray="1,5" d="M93.24,-143.55C131.55,-143.55 169.85,-143.55 208.16,-143.55"/>
</g>
</g>
</svg>
